<svg width="48" height="48" viewBox="0 0 48 48" fill="none" xmlns="http://www.w3.org/2000/svg">
<rect width="48" height="48" rx="7" fill="#E3E0FD"/>
<path d="M15 22V31C15 31.5304 15.2107 32.0391 15.5858 32.4142C15.9609 32.7893 16.4696 33 17 33H31C31.5304 33 32.0391 32.7893 32.4142 32.4142C32.7893 32.0391 33 31.5304 33 31V22" stroke="#A59BF9" stroke-width="1.5"/>
<path d="M26.834 33V27C26.834 26.4696 26.6233 25.9609 26.2482 25.5858C25.8731 25.2107 25.3644 25 24.834 25H22.834C22.3036 25 21.7948 25.2107 21.4198 25.5858C21.0447 25.9609 20.834 26.4696 20.834 27V33" stroke="#A59BF9" stroke-width="1.5" stroke-miterlimit="16"/>
<path d="M33.818 21.364L32.124 15.435C32.0881 15.3096 32.0124 15.1994 31.9083 15.1209C31.8042 15.0424 31.6774 15 31.547 15H27.5L27.975 20.704C27.9823 20.7957 28.0114 20.8843 28.0597 20.9625C28.1081 21.0408 28.1743 21.1064 28.253 21.154C28.643 21.387 29.405 21.817 30 22C31.016 22.313 32.5 22.2 33.346 22.096C33.4282 22.0854 33.5072 22.0569 33.5773 22.0126C33.6474 21.9683 33.707 21.9093 33.752 21.8396C33.7969 21.7699 33.8261 21.6912 33.8375 21.6091C33.8489 21.5269 33.8423 21.4433 33.818 21.364Z" stroke="#A59BF9" stroke-width="1.5"/>
<path d="M25.9997 22C26.5677 21.825 27.2877 21.426 27.6897 21.188C27.7832 21.132 27.8591 21.0509 27.9086 20.9538C27.9582 20.8567 27.9793 20.7476 27.9697 20.639L27.4997 15H20.4997L20.0297 20.639C20.0199 20.7477 20.0409 20.857 20.0905 20.9543C20.14 21.0516 20.216 21.133 20.3097 21.189C20.7117 21.426 21.4317 21.825 21.9997 22C23.4927 22.46 24.5067 22.46 25.9997 22Z" stroke="#A59BF9" stroke-width="1.5"/>
<path d="M15.8765 15.435L14.1825 21.365C14.1586 21.4442 14.1522 21.5276 14.1638 21.6095C14.1754 21.6914 14.2046 21.7698 14.2495 21.8393C14.2945 21.9087 14.3539 21.9676 14.4239 22.0117C14.4938 22.0559 14.5725 22.0843 14.6545 22.095C15.4995 22.2 16.9845 22.312 18.0005 22C18.5955 21.817 19.3585 21.387 19.7475 21.155C19.8264 21.1073 19.8927 21.0415 19.941 20.9631C19.9894 20.8847 20.0184 20.7959 20.0255 20.704L20.5005 15H16.4535C16.3232 15 16.1963 15.0424 16.0922 15.1209C15.9881 15.1994 15.9124 15.3096 15.8765 15.435Z" stroke="#A59BF9" stroke-width="1.5"/>
</svg>
